<?xml version="1.0" encoding="UTF-8"?>
<svg width="27px" height="20px" viewBox="0 0 27 20" version="1.1" xmlns="http://www.w3.org/2000/svg" xmlns:xlink="http://www.w3.org/1999/xlink">
    <!-- Generator: Sketch 55.2 (78181) - https://sketchapp.com -->
    <title>email (1)</title>
    <desc>Created with Sketch.</desc>
    <g id="Page-1" stroke="none" stroke-width="1" fill="none" fill-rule="evenodd">
        <g id="iPhone-XR-Copy-4" transform="translate(-38.000000, -309.000000)" fill-rule="nonzero">
            <g id="email-(1)" transform="translate(38.000000, 309.000000)">
                <path d="M0.676666667,0.676666667 C0.258769231,1.09451282 0,1.6714359 0,2.30769231 L0,17.6923077 C0,18.3285641 0.258769231,18.9054872 0.676666667,19.3233333 L1.85097436,18.9182564 L10.1562564,10.6129744 L10,10 L10.0987179,9.32948718 L2.35553846,1.58630769 L0.676666667,0.676666667 Z" id="Path" fill="#FEA832"></path>
                <path d="M16.2564103,10 L16.128,10.6408205 L24.1,18.6128205 L25.5797436,19.3233333 C25.997641,18.9054872 26.2564103,18.3285641 26.2564103,17.6923077 L26.2564103,2.30769231 C26.2564103,1.6714359 25.997641,1.09451282 25.5797436,0.676666667 L24.2251282,1.26205128 L16.0761026,9.41107692 L16.2564103,10 Z" id="Path" fill="#FE9923"></path>
                <path d="M25.5795897,19.3230769 C25.1641538,19.7384103 24.5793333,20 23.9487179,20 L2.30769231,20 C1.67707692,20 1.09225641,19.7384103 0.676820513,19.3230769 L10,10 L10.4615897,9.69230769 L12.0344103,11.2057949 C12.670359,11.8177436 13.6791282,11.8080513 14.3031795,11.184 L15.5795385,9.90769231 L16.2564103,10 L25.5795897,19.3230769 Z" id="Path" fill="#FFCC33"></path>
                <path d="M25.5795897,0.676923077 L14.3202564,11.9361538 C13.6894359,12.5669744 12.6673846,12.5690769 12.034,11.9408718 L0.676820513,0.676923077 C1.09225641,0.261487179 1.67707692,0 2.30769231,0 L23.9487179,0 C24.5793333,0 25.1641538,0.261487179 25.5795897,0.676923077 Z" id="Path" fill="#FEDB41"></path>
            </g>
        </g>
    </g>
</svg>